<svg width="291" height="166" viewBox="0 0 291 166" fill="none" xmlns="http://www.w3.org/2000/svg">
<path d="M291 164.095C291 165.147 290.147 166 289.095 166L1.90488 166C0.852844 166 -6.88972e-08 165.147 -1.53886e-07 164.095L-1.32565e-05 1.90487C-1.33414e-05 0.852841 0.852831 -3.06798e-06 1.90486 -3.16751e-06L225.835 -2.43526e-05C226.691 -2.44336e-05 227.442 0.571478 227.671 1.39686L240.954 49.4C241.867 52.7015 244.872 54.9875 248.297 54.9875L289.095 54.9875C290.147 54.9875 291 55.8403 291 56.8924L291 164.095Z" fill="white"/>
<path d="M290.5 164.095C290.5 164.871 289.871 165.5 289.095 165.5L1.90488 165.5C1.129 165.5 0.5 164.871 0.5 164.095L0.499987 1.90487C0.499987 1.12898 1.12898 0.499997 1.90486 0.499997L225.835 0.499976C226.467 0.499976 227.021 0.921469 227.189 1.5302L240.472 49.5334C241.445 53.0515 244.647 55.4875 248.297 55.4875L289.095 55.4875C289.871 55.4875 290.5 56.1165 290.5 56.8924L290.5 164.095Z" stroke="black" stroke-opacity="0.1"/>
</svg>
