<svg width="21" height="16" viewBox="0 0 21 16" fill="none" xmlns="http://www.w3.org/2000/svg">
<path d="M14.3656 3.47623L14.1947 3.55531L14.1185 3.72748L13.6635 4.7545L13.2197 3.7311L13.1435 3.5553L12.9693 3.47547L11.9318 3L12.9693 2.52454L13.1435 2.44471L13.2197 2.26891L13.6635 1.24551L14.1185 2.27253L14.1947 2.4447L14.3656 2.52377L15.3948 3L14.3656 3.47623ZM2.80271 5.51566L2.51215 5.59012L2.44107 5.88153L2.43902 5.88991L2.43698 5.88153L2.3659 5.59012L2.07533 5.51566L2.01426 5.50001L2.07533 5.48436L2.3659 5.4099L2.43698 5.11848L2.43902 5.1101L2.44107 5.11848L2.51215 5.4099L2.80271 5.48436L2.86379 5.50001L2.80271 5.51566Z" fill="#FAFAFA" stroke="#FAFAFA"/>
<path d="M1.95117 15L8.42255 8.36684C8.61876 8.16572 8.94212 8.16572 9.13833 8.36684L13.3006 12.6332C13.4968 12.8343 13.8202 12.8343 14.0164 12.6332L20 6.5" stroke="#FAFAFA" stroke-width="2" stroke-linecap="round"/>
</svg>
