<svg width="13" height="75" viewBox="0 0 13 75" fill="none" xmlns="http://www.w3.org/2000/svg">
<path d="M12 69.1236L7.92 71.4336L7.92 72.4236L12 72.4236L12 74.5236L1.53 74.5236L1.53 70.5936C1.53 69.7836 1.675 69.0936 1.965 68.5236C2.245 67.9536 2.63 67.5286 3.12 67.2486C3.6 66.9586 4.14 66.8136 4.74 66.8136C5.43 66.8136 6.055 67.0136 6.615 67.4136C7.165 67.8136 7.545 68.4086 7.755 69.1986L12 66.6936L12 69.1236ZM6.345 72.4236L6.345 70.6686C6.345 70.0986 6.21 69.6736 5.94 69.3936C5.66 69.1136 5.275 68.9736 4.785 68.9736C4.305 68.9736 3.935 69.1136 3.675 69.3936C3.405 69.6736 3.27 70.0986 3.27 70.6686L3.27 72.4236L6.345 72.4236ZM7.665 56.6892C7.965 56.6892 8.235 56.7092 8.475 56.7492L8.475 62.8242C9.075 62.7742 9.545 62.5642 9.885 62.1942C10.225 61.8242 10.395 61.3692 10.395 60.8292C10.395 60.0492 10.06 59.4942 9.39 59.1642L9.39 56.8992C10.19 57.1392 10.85 57.5992 11.37 58.2792C11.88 58.9592 12.135 59.7942 12.135 60.7842C12.135 61.5842 11.96 62.3042 11.61 62.9442C11.25 63.5742 10.745 64.0692 10.095 64.4292C9.445 64.7792 8.695 64.9542 7.845 64.9542C6.985 64.9542 6.23 64.7792 5.58 64.4292C4.93 64.0792 4.43 63.5892 4.08 62.9592C3.73 62.3292 3.555 61.6042 3.555 60.7842C3.555 59.9942 3.725 59.2892 4.065 58.6692C4.405 58.0392 4.89 57.5542 5.52 57.2142C6.14 56.8642 6.855 56.6892 7.665 56.6892ZM7.065 58.8642C6.525 58.8742 6.095 59.0692 5.775 59.4492C5.445 59.8292 5.28 60.2942 5.28 60.8442C5.28 61.3642 5.44 61.8042 5.76 62.1642C6.07 62.5142 6.505 62.7292 7.065 62.8092L7.065 58.8642ZM7.845 55.1964C6.985 55.1964 6.235 55.0214 5.595 54.6714C4.945 54.3214 4.445 53.8364 4.095 53.2164C3.735 52.5964 3.555 51.8864 3.555 51.0864C3.555 50.0564 3.815 49.2064 4.335 48.5364C4.845 47.8564 5.565 47.4014 6.495 47.1714L6.495 49.4364C6.135 49.5564 5.855 49.7614 5.655 50.0514C5.445 50.3314 5.34 50.6814 5.34 51.1014C5.34 51.7014 5.56 52.1764 6 52.5264C6.43 52.8764 7.045 53.0514 7.845 53.0514C8.635 53.0514 9.25 52.8764 9.69 52.5264C10.12 52.1764 10.335 51.7014 10.335 51.1014C10.335 50.2514 9.955 49.6964 9.195 49.4364L9.195 47.1714C10.095 47.4014 10.81 47.8564 11.34 48.5364C11.87 49.2164 12.135 50.0664 12.135 51.0864C12.135 51.8864 11.96 52.5964 11.61 53.2164C11.25 53.8364 10.75 54.3214 10.11 54.6714C9.46 55.0214 8.705 55.1964 7.845 55.1964ZM12.135 41.443C12.135 42.243 11.96 42.963 11.61 43.603C11.25 44.243 10.745 44.748 10.095 45.118C9.445 45.478 8.695 45.658 7.845 45.658C6.995 45.658 6.245 45.473 5.595 45.103C4.945 44.723 4.445 44.208 4.095 43.558C3.735 42.908 3.555 42.183 3.555 41.383C3.555 40.583 3.735 39.858 4.095 39.208C4.445 38.558 4.945 38.048 5.595 37.678C6.245 37.298 6.995 37.108 7.845 37.108C8.695 37.108 9.445 37.303 10.095 37.693C10.745 38.073 11.25 38.593 11.61 39.253C11.96 39.903 12.135 40.633 12.135 41.443ZM10.305 41.443C10.305 41.063 10.215 40.708 10.035 40.378C9.845 40.038 9.565 39.768 9.195 39.568C8.825 39.368 8.375 39.268 7.845 39.268C7.055 39.268 6.45 39.478 6.03 39.898C5.6 40.308 5.385 40.813 5.385 41.413C5.385 42.013 5.6 42.518 6.03 42.928C6.45 43.328 7.055 43.528 7.845 43.528C8.635 43.528 9.245 43.333 9.675 42.943C10.095 42.543 10.305 42.043 10.305 41.443ZM10.89 33.5825L10.89 29.9225L12 29.9225L12 34.9475L1.545 34.9475L1.545 33.5825L10.89 33.5825ZM7.86 28.4829C7.02 28.4829 6.285 28.3129 5.655 27.9729C5.015 27.6329 4.52 27.1679 4.17 26.5779C3.82 25.9779 3.645 25.3129 3.645 24.5829C3.645 23.8629 3.8 23.2379 4.11 22.7079C4.42 22.1779 4.81 21.7829 5.28 21.5229L3.78 21.5229L3.78 20.1429L12 20.1429L12 21.5229L10.47 21.5229C10.95 21.7929 11.35 22.1979 11.67 22.7379C11.98 23.2679 12.135 23.8879 12.135 24.5979C12.135 25.3279 11.955 25.9879 11.595 26.5779C11.235 27.1679 10.73 27.6329 10.08 27.9729C9.43 28.3129 8.69 28.4829 7.86 28.4829ZM7.875 21.5229C7.255 21.5229 6.715 21.6479 6.255 21.8979C5.795 22.1479 5.445 22.4879 5.205 22.9179C4.955 23.3379 4.83 23.8029 4.83 24.3129C4.83 24.8229 4.95 25.2879 5.19 25.7079C5.43 26.1279 5.78 26.4629 6.24 26.7129C6.7 26.9629 7.24 27.0879 7.86 27.0879C8.49 27.0879 9.04 26.9629 9.51 26.7129C9.97 26.4629 10.325 26.1279 10.575 25.7079C10.815 25.2879 10.935 24.8229 10.935 24.3129C10.935 23.8029 10.815 23.3379 10.575 22.9179C10.325 22.4879 9.97 22.1479 9.51 21.8979C9.04 21.6479 8.495 21.5229 7.875 21.5229ZM5.31 15.9712C4.82 15.6912 4.42 15.2812 4.11 14.7412C3.8 14.2012 3.645 13.5862 3.645 12.8962C3.645 12.1562 3.82 11.4912 4.17 10.9012C4.52 10.3112 5.015 9.84621 5.655 9.50621C6.285 9.16621 7.02 8.99621 7.86 8.99621C8.69 8.99621 9.43 9.16621 10.08 9.50621C10.73 9.84621 11.235 10.3162 11.595 10.9162C11.955 11.5062 12.135 12.1662 12.135 12.8962C12.135 13.6062 11.98 14.2312 11.67 14.7712C11.36 15.3012 10.965 15.7012 10.485 15.9712L12 15.9712L12 17.3362L0.9 17.3362L0.900001 15.9712L5.31 15.9712ZM7.86 10.3912C7.24 10.3912 6.7 10.5162 6.24 10.7662C5.78 11.0162 5.43 11.3562 5.19 11.7862C4.95 12.2062 4.83 12.6712 4.83 13.1812C4.83 13.6812 4.955 14.1462 5.205 14.5762C5.445 14.9962 5.8 15.3362 6.27 15.5962C6.73 15.8462 7.265 15.9712 7.875 15.9712C8.495 15.9712 9.04 15.8462 9.51 15.5962C9.97 15.3362 10.325 14.9962 10.575 14.5762C10.815 14.1462 10.935 13.6812 10.935 13.1812C10.935 12.6712 10.815 12.2062 10.575 11.7862C10.325 11.3562 9.97 11.0162 9.51 10.7662C9.04 10.5162 8.49 10.3912 7.86 10.3912ZM12.135 3.78949C12.135 4.41949 12.03 4.98449 11.82 5.48449C11.6 5.98449 11.3 6.37949 10.92 6.66949C10.53 6.95949 10.085 7.11949 9.585 7.14949L9.585 5.73949C9.995 5.69949 10.33 5.50949 10.59 5.16949C10.85 4.81949 10.98 4.36449 10.98 3.80449C10.98 3.28449 10.865 2.87449 10.635 2.57449C10.405 2.27449 10.115 2.12449 9.765 2.12449C9.405 2.12449 9.14 2.28449 8.97 2.60449C8.79 2.92449 8.615 3.41949 8.445 4.08949C8.285 4.69949 8.125 5.19949 7.965 5.58949C7.795 5.96949 7.55 6.29949 7.23 6.57949C6.9 6.84949 6.47 6.98449 5.94 6.98449C5.52 6.98449 5.135 6.85949 4.785 6.60949C4.435 6.35949 4.16 6.00449 3.96 5.54449C3.75 5.08449 3.645 4.55949 3.645 3.96949C3.645 3.05949 3.875 2.32449 4.335 1.76449C4.795 1.20449 5.425 0.904492 6.225 0.864492L6.225 2.22949C5.795 2.25949 5.45 2.43449 5.19 2.75449C4.93 3.06449 4.8 3.48449 4.8 4.01449C4.8 4.50449 4.905 4.89449 5.115 5.18449C5.325 5.47449 5.6 5.61949 5.94 5.61949C6.21 5.61949 6.435 5.53449 6.615 5.36449C6.785 5.18449 6.925 4.96449 7.035 4.70449C7.135 4.43449 7.25 4.06449 7.38 3.59449C7.54 3.00449 7.7 2.52449 7.86 2.15449C8.01 1.78449 8.24 1.46949 8.55 1.20949C8.86 0.939492 9.265 0.799492 9.765 0.789492C10.215 0.789492 10.62 0.914492 10.98 1.16449C11.34 1.41449 11.625 1.76949 11.835 2.22949C12.035 2.67949 12.135 3.19949 12.135 3.78949Z" fill="white"/>
</svg>
